<svg width="64" height="43" viewBox="0 0 64 43" fill="none" xmlns="http://www.w3.org/2000/svg">
<g filter="url(#filter0_d_109_209)">
<path d="M60 17.5C60 27.165 49.6762 35 36.9412 35C24.2061 35 4 27.165 4 17.5C4 7.83502 24.2061 0 36.9412 0C49.6762 0 60 7.83502 60 17.5Z" fill="#C4C4C4"/>
<path d="M36.9414 0.0996094C43.2889 0.0996563 49.0317 2.05271 53.1855 5.20508C57.3394 8.35754 59.9004 12.7055 59.9004 17.5C59.9004 22.2945 57.3394 26.6425 53.1855 29.7949C49.0317 32.9473 43.2889 34.9003 36.9414 34.9004C30.5906 34.9004 22.3699 32.9454 15.7383 29.7842C12.4227 28.2037 9.50933 26.3241 7.42676 24.2412C5.34369 22.1578 4.09961 19.8797 4.09961 17.5C4.09961 15.1203 5.34369 12.8422 7.42676 10.7588C9.50933 8.67586 12.4227 6.79632 15.7383 5.21582C22.3699 2.05462 30.5906 0.0996094 36.9414 0.0996094Z" stroke="black" stroke-width="0.2"/>
</g>
<defs>
<filter id="filter0_d_109_209" x="0" y="0" width="64" height="43" filterUnits="userSpaceOnUse" color-interpolation-filters="sRGB">
<feFlood flood-opacity="0" result="BackgroundImageFix"/>
<feColorMatrix in="SourceAlpha" type="matrix" values="0 0 0 0 0 0 0 0 0 0 0 0 0 0 0 0 0 0 127 0" result="hardAlpha"/>
<feOffset dy="4"/>
<feGaussianBlur stdDeviation="2"/>
<feComposite in2="hardAlpha" operator="out"/>
<feColorMatrix type="matrix" values="0 0 0 0 0.968627 0 0 0 0 0.823529 0 0 0 0 0.592157 0 0 0 0.5 0"/>
<feBlend mode="normal" in2="BackgroundImageFix" result="effect1_dropShadow_109_209"/>
<feBlend mode="normal" in="SourceGraphic" in2="effect1_dropShadow_109_209" result="shape"/>
</filter>
</defs>
</svg>
