<svg width="60" height="9" viewBox="0 0 60 9" fill="none" xmlns="http://www.w3.org/2000/svg">
<path fill-rule="evenodd" clip-rule="evenodd" d="M1.7857 1.97905C0.663525 2.51005 -4.57764e-05 3.18428 -4.57764e-05 4.03531C-4.57764e-05 4.88051 0.593464 5.55981 1.60711 6.10044C2.62265 6.64207 4.08553 7.05969 5.88509 7.37486C9.48613 8.00555 14.4669 8.23109 19.9945 8.19661C31.0515 8.12764 44.318 7.01791 53.1616 6.01491L53.1795 6.01288L53.1955 6.00479C54.1818 5.50606 56.7484 4.43336 59.1125 4.13452L59.2 4.12347V2.44137L59.1107 2.43171C49.2757 1.36606 34.5222 0.162369 22.2262 0.0150315C16.079 -0.0586272 10.5412 0.131634 6.53814 0.736511C4.53765 1.0388 2.9129 1.44566 1.7857 1.97905ZM59 2.62089C49.1685 1.558 34.4739 0.361805 22.2238 0.215017C16.0793 0.141391 10.5546 0.331877 6.56802 0.934266C4.57372 1.23562 2.9719 1.63901 1.87124 2.15983C0.765549 2.68303 0.199951 3.30695 0.199951 4.03531C0.199951 4.76951 0.711658 5.39618 1.70123 5.92397C2.68889 6.45073 4.12719 6.86394 5.91959 7.17786C9.50246 7.80537 14.4687 8.03108 19.9932 7.99662C31.0331 7.92775 44.2815 6.82024 53.1213 5.8182C54.1174 5.31693 56.6418 4.26348 59 3.94749V2.62089Z" fill="black"/>
</svg>
